<?xml version="1.0" encoding="UTF-8" standalone="no"?>
<svg version="1.1" xmlns="http://www.w3.org/2000/svg" xmlns:xlink="http://www.w3.org/1999/xlink" x="0px" y="0px" width="24px" height="24px" viewBox="0 0 24 24" enable-background="new 0 0 24 24" xml:space="preserve">
  <g id="frame" transform="matrix(1.09,0,0,1.09,-1.13,-0.99)">
    <path fill="#181818" d="M5.75,3h12.5c1.5188,0,2.75,1.2312,2.75,2.75v12.5c0,1.5188,-1.2312,2.75,-2.75,2.75h-12.5C4.2312,21,3,19.7688,3,18.25v-12.5C3,4.2312,4.2312,3,5.75,3z"/>
    <path fill="#000000" d="M5.75,4.5C5.0596,4.5,4.5,5.0596,4.5,5.75v12.5c0,0.6904,0.5596,1.25,1.25,1.25h12.5c0.6904,0,1.25,-0.5596,1.25,-1.25v-12.5c0,-0.6904,-0.5596,-1.25,-1.25,-1.25H5.75z"/>
  </g>
  <g id="tens" transform="translate(5,6.0)">
    <path fill="#74ba43" d="M3,10.6022V3.5649l-0.7923,0.7846c-0.0962,0.0952,-0.2302,0.1443,-0.3649,0.1307c-0.8095,-0.082,-0.998,-0.8922,-0.5705,-1.3154l1.95,-1.931c0.3368,-0.3332,0.9355,-0.2987,1.2214,0.2149C4.4815,1.5166,4.5,1.594,4.5,1.6717l0,8.7616c0,0.6015,-0.7082,1.0377,-1.3361,0.5202C3.0594,10.8674,3,10.7376,3,10.6022z"/>
  </g>
  <g id="ones" transform="translate(10.7,6.0)">
    <path fill="#74ba43" d="M4,11c-3,0,-3,-3.5038,-3,-5c0,-1.4962,0,-5,3,-5s3,3.5038,3,5C7,7.4962,7,11,4,11zM4,2.4834c-0.705,0,-1.4571,0.2718,-1.4571,3.5166c0,3.2448,0.7521,3.5166,1.4571,3.5166S5.4571,9.2448,5.4571,6C5.4571,2.7552,4.705,2.4834,4,2.4834z"/>
  </g>
</svg>
