<?xml version="1.0" encoding="UTF-8" standalone="no"?>
<svg version="1.1" xmlns="http://www.w3.org/2000/svg" xmlns:xlink="http://www.w3.org/1999/xlink" x="0px" y="0px" width="24px" height="24px" viewBox="0 0 24 24" enable-background="new 0 0 24 24" xml:space="preserve">
  <g id="frame" transform="matrix(1.09,0,0,1.09,-1.13,-0.99)">
    <path fill="#242424" d="M5.75,3h12.5c1.5188,0,2.75,1.2312,2.75,2.75v12.5c0,1.5188,-1.2312,2.75,-2.75,2.75h-12.5C4.2312,21,3,19.7688,3,18.25v-12.5C3,4.2312,4.2312,3,5.75,3z"/>
    <path fill="#000000" d="M5.75,4.5C5.0596,4.5,4.5,5.0596,4.5,5.75v12.5c0,0.6904,0.5596,1.25,1.25,1.25h12.5c0.6904,0,1.25,-0.5596,1.25,-1.25v-12.5c0,-0.6904,-0.5596,-1.25,-1.25,-1.25H5.75z"/>
  </g>
  <g id="tens" transform="translate(5,6.0)">
    <path fill="#74ba43" d="M3,10.6022V3.5649l-0.7923,0.7846c-0.0962,0.0952,-0.2302,0.1443,-0.3649,0.1307c-0.8095,-0.082,-0.998,-0.8922,-0.5705,-1.3154l1.95,-1.931c0.3368,-0.3332,0.9355,-0.2987,1.2214,0.2149C4.4815,1.5166,4.5,1.594,4.5,1.6717l0,8.7616c0,0.6015,-0.7082,1.0377,-1.3361,0.5202C3.0594,10.8674,3,10.7376,3,10.6022z"/>
  </g>
  <g id="ones" transform="translate(10.7,6.0)">
    <path fill="#74ba43" d="M4.0496,11H1.8618c-0.3834,0,-0.7265,-0.2754,-0.7728,-0.656C1.0336,9.8879,1.3882,9.5,1.8333,9.5H4.05c0.3419,0,1.3825,0.1,1.3825,-1.35S4.3919,6.7,4.05,6.7l-2.2023,0c-0.108,0,-0.2167,-0.0172,-0.3151,-0.0618c-0.3142,-0.1423,-0.4793,-0.4607,-0.4399,-0.7764l0.5385,-4.2086c0.0467,-0.3732,0.3639,-0.6532,0.74,-0.6532h3.7669c0.3834,0,0.7265,0.2754,0.7728,0.656c0.0555,0.4562,-0.2992,0.844,-0.7443,0.844H3.035l-0.35,2.7h1.3646c2.1282,0,2.8833,1.5892,2.8833,2.95S6.1778,11,4.0496,11z"/>
  </g>
</svg>
