<?xml version="1.0" encoding="UTF-8" standalone="no"?>
<svg version="1.1" xmlns="http://www.w3.org/2000/svg" xmlns:xlink="http://www.w3.org/1999/xlink" x="0px" y="0px" width="20px" height="20px" viewBox="2 2 20 20" enable-background="new 2 2 20 20" xml:space="preserve">
  <g id="frame" transform="matrix(1.0967,0,0,1.0954,-1.1501,-1.1267)">
    <path fill="#303030" d="M5.75,3h12.5c1.5188,0,2.75,1.2312,2.75,2.75v12.5c0,1.5188,-1.2312,2.75,-2.75,2.75h-12.5C4.2312,21,3,19.7688,3,18.25v-12.5C3,4.2312,4.2312,3,5.75,3z"/>
    <path fill="#000000" d="M5.75,4.5C5.0596,4.5,4.5,5.0596,4.5,5.75v12.5c0,0.6904,0.5596,1.25,1.25,1.25h12.5c0.6904,0,1.25,-0.5596,1.25,-1.25v-12.5c0,-0.6904,-0.5596,-1.25,-1.25,-1.25H5.75z"/>
  </g>
  <g id="tens" transform="translate(4.37,6.0)">
    <path fill="#74ba43" d="M6.1713,11l-4.4029,0c-0.0356,0,-0.0715,-0.0022,-0.1062,-0.0097c-0.383,-0.0827,-0.6152,-0.4022,-0.6087,-0.7419l0.0163,-0.8724c0.0123,-0.6576,0.2971,-1.2948,0.7813,-1.7483l3.356,-3.1426c0.1221,-0.1734,0.2398,-0.3883,0.2398,-0.7112c0,-0.7157,-0.6433,-1.2979,-1.434,-1.2979c-0.7725,0,-1.4018,0.5466,-1.4328,1.2443c-0.0181,0.4072,-0.3667,0.7233,-0.782,0.705c-0.4138,-0.0177,-0.7346,-0.3623,-0.7165,-0.7695C1.1477,2.1666,2.4353,1,4.0129,1c1.6178,0,2.934,1.2444,2.934,2.7739c0,0.7921,-0.3356,1.3243,-0.5788,1.651c-0.0179,0.024,-0.037,0.0451,-0.0589,0.0657c-0.3109,0.2911,-2.7772,2.6007,-3.5205,3.2967c-0.1353,0.1267,-0.2132,0.3013,-0.2167,0.485l-0.0047,0.2518h3.7331c0.1721,0,0.3345,0.081,0.4358,0.2179C7.1822,10.345,6.7544,11,6.1713,11z"/>
  </g>
  <g id="ones" transform="translate(11.37,6.0)">
    <path fill="#74ba43" d="M4,11c-3,0,-3,-3.5038,-3,-5c0,-1.4962,0,-5,3,-5s3,3.5038,3,5C7,7.4962,7,11,4,11zM4,2.4834c-0.705,0,-1.4571,0.2718,-1.4571,3.5166c0,3.2448,0.7521,3.5166,1.4571,3.5166S5.4571,9.2448,5.4571,6C5.4571,2.7552,4.705,2.4834,4,2.4834z"/>
  </g>
</svg>
