<?xml version="1.0" encoding="UTF-8" standalone="no"?>
<svg version="1.1" xmlns="http://www.w3.org/2000/svg" xmlns:xlink="http://www.w3.org/1999/xlink" x="0px" y="0px" width="20px" height="20px" viewBox="2 2 20 20" enable-background="new 2 2 20 20" xml:space="preserve">
  <g id="frame" transform="matrix(1.0967,0,0,1.0954,-1.1501,-1.1267)">
    <path fill="#3c3c3c" d="M5.75,3h12.5c1.5188,0,2.75,1.2312,2.75,2.75v12.5c0,1.5188,-1.2312,2.75,-2.75,2.75h-12.5C4.2312,21,3,19.7688,3,18.25v-12.5C3,4.2312,4.2312,3,5.75,3z"/>
    <path fill="#000000" d="M5.75,4.5C5.0596,4.5,4.5,5.0596,4.5,5.75v12.5c0,0.6904,0.5596,1.25,1.25,1.25h12.5c0.6904,0,1.25,-0.5596,1.25,-1.25v-12.5c0,-0.6904,-0.5596,-1.25,-1.25,-1.25H5.75z"/>
  </g>
  <g id="tens" transform="translate(4.37,6.0)">
    <path fill="#74ba43" d="M6.1713,11l-4.4029,0c-0.0356,0,-0.0715,-0.0022,-0.1062,-0.0097c-0.383,-0.0827,-0.6152,-0.4022,-0.6087,-0.7419l0.0163,-0.8724c0.0123,-0.6576,0.2971,-1.2948,0.7813,-1.7483l3.356,-3.1426c0.1221,-0.1734,0.2398,-0.3883,0.2398,-0.7112c0,-0.7157,-0.6433,-1.2979,-1.434,-1.2979c-0.7725,0,-1.4018,0.5466,-1.4328,1.2443c-0.0181,0.4072,-0.3667,0.7233,-0.782,0.705c-0.4138,-0.0177,-0.7346,-0.3623,-0.7165,-0.7695C1.1477,2.1666,2.4353,1,4.0129,1c1.6178,0,2.934,1.2444,2.934,2.7739c0,0.7921,-0.3356,1.3243,-0.5788,1.651c-0.0179,0.024,-0.037,0.0451,-0.0589,0.0657c-0.3109,0.2911,-2.7772,2.6007,-3.5205,3.2967c-0.1353,0.1267,-0.2132,0.3013,-0.2167,0.485l-0.0047,0.2518h3.7331c0.1721,0,0.3345,0.081,0.4358,0.2179C7.1822,10.345,6.7544,11,6.1713,11z"/>
  </g>
  <g id="ones" transform="translate(11.37,6.0)">
    <path fill="#74ba43" d="M4.0496,11H1.8618c-0.3834,0,-0.7265,-0.2754,-0.7728,-0.656C1.0336,9.8879,1.3882,9.5,1.8333,9.5H4.05c0.3419,0,1.3825,0.1,1.3825,-1.35S4.3919,6.7,4.05,6.7l-2.2023,0c-0.108,0,-0.2167,-0.0172,-0.3151,-0.0618c-0.3142,-0.1423,-0.4793,-0.4607,-0.4399,-0.7764l0.5385,-4.2086c0.0467,-0.3732,0.3639,-0.6532,0.74,-0.6532h3.7669c0.3834,0,0.7265,0.2754,0.7728,0.656c0.0555,0.4562,-0.2992,0.844,-0.7443,0.844H3.035l-0.35,2.7h1.3646c2.1282,0,2.8833,1.5892,2.8833,2.95S6.1778,11,4.0496,11z"/>
  </g>
</svg>
