<?xml version="1.0" encoding="UTF-8" standalone="no"?>
<svg version="1.1" xmlns="http://www.w3.org/2000/svg" xmlns:xlink="http://www.w3.org/1999/xlink" x="0px" y="0px" width="20px" height="20px" viewBox="2 2 20 20" enable-background="new 2 2 20 20" xml:space="preserve">
  <g id="frame" transform="matrix(1.0967,0,0,1.0954,-1.1501,-1.1267)">
    <path fill="#545454" d="M5.75,3h12.5c1.5188,0,2.75,1.2312,2.75,2.75v12.5c0,1.5188,-1.2312,2.75,-2.75,2.75h-12.5C4.2312,21,3,19.7688,3,18.25v-12.5C3,4.2312,4.2312,3,5.75,3z"/>
    <path fill="#000000" d="M5.75,4.5C5.0596,4.5,4.5,5.0596,4.5,5.75v12.5c0,0.6904,0.5596,1.25,1.25,1.25h12.5c0.6904,0,1.25,-0.5596,1.25,-1.25v-12.5c0,-0.6904,-0.5596,-1.25,-1.25,-1.25H5.75z"/>
  </g>
  <g id="tens" transform="translate(4.37,6.0)">
    <path fill="#74ba43" d="M4.0092,11C1.9878,11,1.2,9.5957,1.1367,8.2814c-0.0196,-0.4063,0.3001,-0.7513,0.7138,-0.7705c0.4145,-0.0172,0.765,0.2947,0.7846,0.701c0.0632,1.315,1.0499,1.315,1.3742,1.315c0.9135,0,1.3768,-0.477,1.3768,-1.4178c0,-0.7076,-0.5424,-1.2257,-1.4509,-1.3858c-0.3573,-0.063,-0.6174,-0.3684,-0.6174,-0.725c0,-0.3566,0.2601,-0.662,0.6175,-0.725c0.9627,-0.1697,1.4509,-0.6359,1.4509,-1.3858c0,-0.9408,-0.4633,-1.4178,-1.3768,-1.4178c-0.3242,0,-1.311,0,-1.3742,1.315c-0.0196,0.4063,-0.3691,0.7189,-0.7846,0.701c-0.4137,-0.0192,-0.7333,-0.3642,-0.7138,-0.7705C1.2,2.401,1.9878,0.9967,4.0092,0.9967c2.1234,0,2.8768,1.5573,2.8768,2.8909c0,0.881,-0.3561,1.6132,-0.9995,2.1241c0.6339,0.519,0.9995,1.2524,0.9995,2.0975C6.8861,9.4427,6.1326,11,4.0092,11z"/>
  </g>
  <g id="ones" transform="translate(11.37,6.0)">
    <path fill="#74ba43" d="M4.0496,11H1.8618c-0.3834,0,-0.7265,-0.2754,-0.7728,-0.656C1.0336,9.8879,1.3882,9.5,1.8333,9.5H4.05c0.3419,0,1.3825,0.1,1.3825,-1.35S4.3919,6.7,4.05,6.7l-2.2023,0c-0.108,0,-0.2167,-0.0172,-0.3151,-0.0618c-0.3142,-0.1423,-0.4793,-0.4607,-0.4399,-0.7764l0.5385,-4.2086c0.0467,-0.3732,0.3639,-0.6532,0.74,-0.6532h3.7669c0.3834,0,0.7265,0.2754,0.7728,0.656c0.0555,0.4562,-0.2992,0.844,-0.7443,0.844H3.035l-0.35,2.7h1.3646c2.1282,0,2.8833,1.5892,2.8833,2.95S6.1778,11,4.0496,11z"/>
  </g>
</svg>
