<?xml version="1.0" encoding="UTF-8" standalone="no"?>
<svg version="1.1" xmlns="http://www.w3.org/2000/svg" xmlns:xlink="http://www.w3.org/1999/xlink" x="0px" y="0px" width="24px" height="24px" viewBox="0 0 24 24" enable-background="new 0 0 24 24" xml:space="preserve">
  <g id="frame" transform="matrix(1.09,0,0,1.09,-1.13,-0.99)">
    <path fill="#a8a8a8" d="M5.75,3h12.5c1.5188,0,2.75,1.2312,2.75,2.75v12.5c0,1.5188,-1.2312,2.75,-2.75,2.75h-12.5C4.2312,21,3,19.7688,3,18.25v-12.5C3,4.2312,4.2312,3,5.75,3z"/>
    <path fill="#000000" d="M5.75,4.5C5.0596,4.5,4.5,5.0596,4.5,5.75v12.5c0,0.6904,0.5596,1.25,1.25,1.25h12.5c0.6904,0,1.25,-0.5596,1.25,-1.25v-12.5c0,-0.6904,-0.5596,-1.25,-1.25,-1.25H5.75z"/>
  </g>
  <g id="tens" transform="translate(4.37,6.0)">
    <path fill="#74ba43" d="M2.8685,11c-0.1113,0,-0.2244,-0.0229,-0.3318,-0.0715c-0.3864,-0.1748,-0.5509,-0.6148,-0.3674,-0.9829l3.0815,-6.1802c0.1303,-0.2647,0.2,-0.5629,0.2,-0.859v-0.431H1.7746c-0.4277,0,-0.7746,-0.3303,-0.7746,-0.7377S1.3468,1,1.7746,1h4.4509C6.6532,1,7,1.3303,7,1.7377v1.1687c0,0.5111,-0.1203,1.0258,-0.3481,1.4886l-3.0832,6.1836C3.4362,10.8445,3.1582,11,2.8685,11z"/>
  </g>
  <g id="ones" transform="translate(11.37,6.0)">
    <path fill="#74ba43" d="M4,11c-3,0,-3,-3.5038,-3,-5c0,-1.4962,0,-5,3,-5s3,3.5038,3,5C7,7.4962,7,11,4,11zM4,2.4834c-0.705,0,-1.4571,0.2718,-1.4571,3.5166c0,3.2448,0.7521,3.5166,1.4571,3.5166S5.4571,9.2448,5.4571,6C5.4571,2.7552,4.705,2.4834,4,2.4834z"/>
  </g>
</svg>
