<?xml version="1.0" encoding="UTF-8" standalone="no"?>
<svg version="1.1" xmlns="http://www.w3.org/2000/svg" xmlns:xlink="http://www.w3.org/1999/xlink" x="0px" y="0px" width="20px" height="20px" viewBox="2 2 20 20" enable-background="new 2 2 20 20" xml:space="preserve">
  <g id="frame" transform="matrix(1.0967,0,0,1.0954,-1.1501,-1.1267)">
    <path fill="#c0c0c0" d="M5.75,3h12.5c1.5188,0,2.75,1.2312,2.75,2.75v12.5c0,1.5188,-1.2312,2.75,-2.75,2.75h-12.5C4.2312,21,3,19.7688,3,18.25v-12.5C3,4.2312,4.2312,3,5.75,3z"/>
    <path fill="#000000" d="M5.75,4.5C5.0596,4.5,4.5,5.0596,4.5,5.75v12.5c0,0.6904,0.5596,1.25,1.25,1.25h12.5c0.6904,0,1.25,-0.5596,1.25,-1.25v-12.5c0,-0.6904,-0.5596,-1.25,-1.25,-1.25H5.75z"/>
  </g>
  <g id="tens" transform="translate(4.37,6.0)">
    <path fill="#74ba43" d="M3.9692,11C1.7776,11,1,9.4381,1,8.1007c0,-0.7451,0.2466,-1.5607,0.8532,-2.1311C1.2466,5.3991,1,4.5835,1,3.8384C1,2.529,1.7776,1,3.9692,1C6.0628,1,7,2.4256,7,3.8384c0,0.7878,-0.2853,1.5796,-0.8926,2.1311C6.7147,6.5211,7,7.3129,7,8.1007C7,9.5438,6.0628,11,3.9692,11zM3.9692,6.7072c-0.9464,0,-1.4263,0.4688,-1.4263,1.3934c0,0.9448,0.4799,1.4239,1.4263,1.4239c1.2946,0,1.4879,-0.8921,1.4879,-1.4239C5.4571,7.5802,5.2638,6.7072,3.9692,6.7072zM3.9692,2.4754c-0.3528,0,-1.4263,0,-1.4263,1.363c0,0.9246,0.4799,1.3934,1.4263,1.3934c1.2946,0,1.4879,-0.873,1.4879,-1.3934C5.4571,3.2166,5.199,2.4754,3.9692,2.4754z"/>
  </g>
  <g id="ones" transform="translate(11.37,6.0)">
    <path fill="#74ba43" d="M4,11c-3,0,-3,-3.5038,-3,-5c0,-1.4962,0,-5,3,-5s3,3.5038,3,5C7,7.4962,7,11,4,11zM4,2.4834c-0.705,0,-1.4571,0.2718,-1.4571,3.5166c0,3.2448,0.7521,3.5166,1.4571,3.5166S5.4571,9.2448,5.4571,6C5.4571,2.7552,4.705,2.4834,4,2.4834z"/>
  </g>
</svg>
