<?xml version="1.0" encoding="UTF-8" standalone="no"?>
<svg version="1.1" xmlns="http://www.w3.org/2000/svg" xmlns:xlink="http://www.w3.org/1999/xlink" x="0px" y="0px" width="20px" height="20px" viewBox="2 2 20 20" enable-background="new 2 2 20 20" xml:space="preserve">
  <g id="frame" transform="matrix(1.0967,0,0,1.0954,-1.1501,-1.1267)">
    <path fill="#cccccc" d="M5.75,3h12.5c1.5188,0,2.75,1.2312,2.75,2.75v12.5c0,1.5188,-1.2312,2.75,-2.75,2.75h-12.5C4.2312,21,3,19.7688,3,18.25v-12.5C3,4.2312,4.2312,3,5.75,3z"/>
    <path fill="#000000" d="M5.75,4.5C5.0596,4.5,4.5,5.0596,4.5,5.75v12.5c0,0.6904,0.5596,1.25,1.25,1.25h12.5c0.6904,0,1.25,-0.5596,1.25,-1.25v-12.5c0,-0.6904,-0.5596,-1.25,-1.25,-1.25H5.75z"/>
  </g>
  <g id="tens" transform="translate(4.37,6.0)">
    <path fill="#74ba43" d="M3.9692,11C1.7776,11,1,9.4381,1,8.1007c0,-0.7451,0.2466,-1.5607,0.8532,-2.1311C1.2466,5.3991,1,4.5835,1,3.8384C1,2.529,1.7776,1,3.9692,1C6.0628,1,7,2.4256,7,3.8384c0,0.7878,-0.2853,1.5796,-0.8926,2.1311C6.7147,6.5211,7,7.3129,7,8.1007C7,9.5438,6.0628,11,3.9692,11zM3.9692,6.7072c-0.9464,0,-1.4263,0.4688,-1.4263,1.3934c0,0.9448,0.4799,1.4239,1.4263,1.4239c1.2946,0,1.4879,-0.8921,1.4879,-1.4239C5.4571,7.5802,5.2638,6.7072,3.9692,6.7072zM3.9692,2.4754c-0.3528,0,-1.4263,0,-1.4263,1.363c0,0.9246,0.4799,1.3934,1.4263,1.3934c1.2946,0,1.4879,-0.873,1.4879,-1.3934C5.4571,3.2166,5.199,2.4754,3.9692,2.4754z"/>
  </g>
  <g id="ones" transform="translate(11.37,6.0)">
    <path fill="#74ba43" d="M4.0496,11H1.8618c-0.3834,0,-0.7265,-0.2754,-0.7728,-0.656C1.0336,9.8879,1.3882,9.5,1.8333,9.5H4.05c0.3419,0,1.3825,0.1,1.3825,-1.35S4.3919,6.7,4.05,6.7l-2.2023,0c-0.108,0,-0.2167,-0.0172,-0.3151,-0.0618c-0.3142,-0.1423,-0.4793,-0.4607,-0.4399,-0.7764l0.5385,-4.2086c0.0467,-0.3732,0.3639,-0.6532,0.74,-0.6532h3.7669c0.3834,0,0.7265,0.2754,0.7728,0.656c0.0555,0.4562,-0.2992,0.844,-0.7443,0.844H3.035l-0.35,2.7h1.3646c2.1282,0,2.8833,1.5892,2.8833,2.95S6.1778,11,4.0496,11z"/>
  </g>
</svg>
