<?xml version="1.0" encoding="UTF-8"?>
<!DOCTYPE svg PUBLIC "-//W3C//DTD SVG 1.1//EN" "http://www.w3.org/Graphics/SVG/1.1/DTD/svg11.dtd">
<svg version="1.1" xmlns="http://www.w3.org/2000/svg" xmlns:xlink="http://www.w3.org/1999/xlink" x="0px" y="0px" width="24px" height="24px" viewBox="0 0 24 24" enable-background="new 0 0 24 24" xml:space="preserve">
  <g id="frame" transform="matrix(1.115,0,0,1.119,-1.347,-1.511)">
    <path fill="#74ba43" d="M5.75,3h12.5c1.5188,0,2.75,1.2312,2.75,2.75v12.5c0,1.5188,-1.2312,2.75,-2.75,2.75h-12.5C4.2312,21,3,19.7688,3,18.25v-12.5C3,4.2312,4.2312,3,5.75,3z"/>
    <path fill="#000000" d="M5.75,4.5C5.0596,4.5,4.5,5.0596,4.5,5.75v12.5c0,0.6904,0.5596,1.25,1.25,1.25h12.5c0.6904,0,1.25,-0.5596,1.25,-1.25v-12.5c0,-0.6904,-0.5596,-1.25,-1.25,-1.25H5.75z"/>
  </g>
  <g id="symbol">
    <path fill="#74ba43" d="M12,17c-2.757,0,-5,-2.243,-5,-5s2.243,-5,5,-5s5,2.243,5,5S14.757,17,12,17zM12,8.4286c-1.9693,0,-3.5714,1.6021,-3.5714,3.5714s1.6021,3.5714,3.5714,3.5714s3.5714,-1.6021,3.5714,-3.5714S13.9693,8.4286,12,8.4286z"/>
    <path fill="#74ba43" d="M12,22c-0.3945,0,-0.7143,-0.3198,-0.7143,-0.7143V18.422c0,-0.3945,0.3198,-0.7143,0.7143,-0.7143s0.7143,0.3198,0.7143,0.7143v2.8637C12.7143,21.6802,12.3945,22,12,22zM18.6964,19.4106c-0.1828,0,-0.3656,-0.0698,-0.5051,-0.2092l-2.1135,-2.1135c-0.2789,-0.2789,-0.2789,-0.7312,0,-1.0102c0.279,-0.2789,0.7312,-0.2789,1.0102,0l2.1135,2.1135c0.2789,0.2789,0.2789,0.7312,0,1.0102C19.0619,19.3409,18.8792,19.4106,18.6964,19.4106zM5.3036,19.4106c-0.1828,0,-0.3656,-0.0698,-0.5051,-0.2092c-0.2789,-0.2789,-0.2789,-0.7312,0,-1.0102l2.1135,-2.1135c0.279,-0.2789,0.7312,-0.2789,1.0102,0c0.2789,0.2789,0.2789,0.7312,0,1.0102l-2.1135,2.1135C5.6692,19.3409,5.4865,19.4106,5.3036,19.4106zM21.2857,12.7143H18.422c-0.3945,0,-0.7143,-0.3198,-0.7143,-0.7143s0.3198,-0.7143,0.7143,-0.7143h2.8637c0.3945,0,0.7143,0.3198,0.7143,0.7143S21.6802,12.7143,21.2857,12.7143zM5.578,12.7143H2.7143c-0.3945,0,-0.7143,-0.3198,-0.7143,-0.7143s0.3198,-0.7143,0.7143,-0.7143H5.578c0.3945,0,0.7143,0.3198,0.7143,0.7143S5.9724,12.7143,5.578,12.7143zM16.5829,8.1314c-0.1828,0,-0.3656,-0.0698,-0.5051,-0.2092c-0.2789,-0.2789,-0.2789,-0.7312,0,-1.0102l2.1135,-2.1135c0.279,-0.2789,0.7312,-0.2789,1.0102,0c0.2789,0.2789,0.2789,0.7312,0,1.0102L17.088,7.9222C16.9484,8.0617,16.7657,8.1314,16.5829,8.1314zM7.4171,8.1314c-0.1828,0,-0.3656,-0.0698,-0.5051,-0.2092L4.7985,5.8087c-0.2789,-0.2789,-0.2789,-0.7312,0,-1.0102c0.279,-0.2789,0.7312,-0.2789,1.0102,0L7.9222,6.912c0.2789,0.2789,0.2789,0.7312,0,1.0102C7.7827,8.0617,7.6,8.1314,7.4171,8.1314zM12,6.2923c-0.3945,0,-0.7143,-0.3198,-0.7143,-0.7143V2.7143c0,-0.3945,0.3198,-0.7143,0.7143,-0.7143s0.7143,0.3198,0.7143,0.7143V5.578C12.7143,5.9724,12.3945,6.2923,12,6.2923z"/>
  </g>
</svg>
